:version 1.10
:name ASF
:units
  mass 1
  length 1
  angle deg
:documentation
  ASF file generated by Kaydara
:root
  axis xyz
  order  tx ty tz rx ry rz
  position 0 0 0
  orientation 0 0 0
:bonedata
  begin
    id 1
    name SpineDummy
    direction 0.999998 -0.00179978 1.38929e-006
    length 3.60008
    axis 0 0 0 xyz
  end
  begin
    id 2
    name Spine
    direction 0.964365 0.262802 0.0305839
    length 8.13928
    axis 1.33928 -1.75354 15.2838 xyz
    dof rx ry rz
  end
  begin
    id 3
    name Spine1
    direction 0.811168 0.572065 0.12144
    length 7.14954
    axis 2.2224 -6.9761 35.2157 xyz
    dof rx ry rz
  end
  begin
    id 4
    name Neck
    direction 0 0 0
    length 0
    axis 2.2224 -6.9761 35.2157 xyz
    dof rx ry rz
  end
  begin
    id 5
    name HeadDummy
    direction 0.810939 0.572387 0.121455
    length 3.55534
    axis 2.2224 -6.9761 35.2157 xyz
  end
  begin
    id 6
    name Head
    direction 0.998226 -0.000232542 0.0595419
    length 7.35666
    axis -3.03688 -3.41352 -0.0133467 xyz
    dof rx ry rz
  end
  begin
    id 7
    name R_ClavicleDummy
    direction 0.531669 -0.194489 -0.824319
    length 2.49392
    axis 2.2224 -6.9761 35.2157 xyz
  end
  begin
    id 8
    name R_Clavicle
    direction -0.155119 0.0480802 -0.986725
    length 4.485
    axis -54.2764 80.6538 162.779 xyz
    dof rx ry rz
  end
  begin
    id 9
    name R_UpperArm
    direction -0.955567 0.200068 -0.216484
    length 10.1122
    axis -72.9943 12.5026 168.175 xyz
    dof rx ry rz
  end
  begin
    id 10
    name R_Forearm
    direction -0.61433 0.385743 0.688332
    length 9.39148
    axis -117.015 -43.4982 147.875 xyz
    dof rx ry rz
  end
  begin
    id 11
    name R_Hand
    direction -0.699429 0.0170333 0.714499
    length 3.66324
    axis -45.0303 -36.7097 175.478 xyz
    dof rx ry rz
  end
  begin
    id 12
    name L_ClavicleDummy
    direction 0.40287 -0.36502 0.839319
    length 2.49392
    axis 2.2224 -6.9761 35.2157 xyz
  end
  begin
    id 13
    name L_Clavicle
    direction -0.231271 -0.0726419 0.970174
    length 4.485
    axis 18.4357 -75.9711 -162.563 xyz
    dof rx ry rz
  end
  begin
    id 14
    name L_UpperArm
    direction -0.917494 0.144359 0.370629
    length 10.1122
    axis 56.0417 -21.7544 171.058 xyz
    dof rx ry rz
  end
  begin
    id 15
    name L_Forearm
    direction -0.496786 0.615074 -0.612281
    length 9.39148
    axis 89.8094 37.7546 128.927 xyz
    dof rx ry rz
  end
  begin
    id 16
    name L_Hand
    direction -0.409932 0.64962 -0.640274
    length 3.66324
    axis -0.424369 32.133 128.52 xyz
    dof rx ry rz
  end
  begin
    id 17
    name L_ThighDummy
    direction -1.84081e-006 1.87549e-006 1
    length 3.13049
    axis 0 0 0 xyz
  end
  begin
    id 18
    name L_Thigh
    direction -0.947739 0.307978 0.083308
    length 17.9961
    axis 173.219 -4.77873 161.998 xyz
    dof rx ry rz
  end
  begin
    id 19
    name L_Calf
    direction -0.728814 -0.684427 0.0197583
    length 13.3367
    axis 167.331 -1.13214 -136.799 xyz
    dof rx ry rz
  end
  begin
    id 20
    name L_Foot
    direction -0.9028 0.418719 0.0981191
    length 5.8674
    axis 163.436 11.5135 -155.37 xyz
    dof rx ry rz
  end
  begin
    id 21
    name L_Toe0
    direction -0.35341 0.886259 0.299411
    length 4.75286
    axis 169.316 -17.4222 111.74 xyz
    dof rx ry rz
  end
  begin
    id 22
    name R_ThighDummy
    direction 9.32778e-007 -8.82053e-007 -1
    length 3.13049
    axis 0 0 0 xyz
  end
  begin
    id 23
    name R_Thigh
    direction -0.925064 0.37528 -0.0585023
    length 17.9961
    axis -178.698 3.35385 157.919 xyz
    dof rx ry rz
  end
  begin
    id 24
    name R_Calf
    direction -0.68969 -0.718776 -0.0876886
    length 13.3367
    axis -160.504 5.03065 -133.817 xyz
    dof rx ry rz
  end
  begin
    id 25
    name R_Foot
    direction -0.857405 0.418858 -0.299022
    length 5.8674
    axis -161.328 4.38911 -154.413 xyz
    dof rx ry rz
  end
  begin
    id 26
    name R_Toe0
    direction -0.100745 0.952789 -0.286433
    length 4.75286
    axis 171.683 16.6445 96.0359 xyz
    dof rx ry rz
  end
:hierarchy
  begin
    root SpineDummy L_ThighDummy R_ThighDummy
    SpineDummy Spine
    Spine Spine1
    Spine1 Neck
    Neck HeadDummy R_ClavicleDummy L_ClavicleDummy
    HeadDummy Head
    R_ClavicleDummy R_Clavicle
    R_Clavicle R_UpperArm
    R_UpperArm R_Forearm
    R_Forearm R_Hand
    L_ClavicleDummy L_Clavicle
    L_Clavicle L_UpperArm
    L_UpperArm L_Forearm
    L_Forearm L_Hand
    L_ThighDummy L_Thigh
    L_Thigh L_Calf
    L_Calf L_Foot
    L_Foot L_Toe0
    R_ThighDummy R_Thigh
    R_Thigh R_Calf
    R_Calf R_Foot
    R_Foot R_Toe0
  end

:SAMPLES-PER-SECOND 30
:FULLY-SPECIFIED
:DEGREES
106
root  -3.96341 33.1435 14.1947 93.8813 11.042 88.2761
Spine  -0.267004 -0.16339 -8.72272
Spine1  0.480398 -1.25662 4.90429
Neck  3.97569e-016 0 -2.38542e-015
Head  10.7385 -0.542102 33.2917
R_Clavicle  0.547954 -11.0167 3.38297
R_UpperArm  23.1187 6.69071 35.8358
R_Forearm  21.6138 -11.5929 9.83692
R_Hand  -0.160629 7.70423 -12.2583
L_Clavicle  -0.349661 11.4328 0.715848
L_UpperArm  -45.8597 -0.251034 40.4658
L_Forearm  -2.36235 22.4428 28.4847
L_Hand  -0.208036 2.41986 -2.85444
L_Thigh  -3.98635 9.94185 1.10799
L_Calf  1.88014 -1.83932 13.0737
L_Foot  1.42784 8.30446 -2.224
L_Toe0  0.505156 0.0347298 -6.13609
R_Thigh  7.94355 4.70229 -24.463
R_Calf  -4.03435 9.7738 32.3801
R_Foot  -0.939022 -3.18402 0.136016
R_Toe0  -1.19553 -0.116427 -11.3574
107
root  -4.16148 33.4186 15.1548 93.9589 9.64819 87.2412
Spine  1.14325 0.648025 -10.5305
Spine1  1.65168 -3.30402 4.57442
Neck  3.97569e-016 0 -2.38542e-015
Head  7.9345 1.39707 33.5056
R_Clavicle  0.515503 -11.1116 3.07209
R_UpperArm  21.2764 6.73539 38.8112
R_Forearm  23.6445 -19.1657 16.531
R_Hand  -0.437726 8.07764 -14.5851
L_Clavicle  -0.368834 10.8841 1.39733
L_UpperArm  -48.7849 -1.94118 40.5132
L_Forearm  -1.2172 23.7569 30.5503
L_Hand  -0.208 1.97902 -3.04206
L_Thigh  -5.41029 10.6933 0.580214
L_Calf  2.0653 -3.52332 26.2657
L_Foot  1.28721 7.97668 -2.47392
L_Toe0  0.505156 0.0348422 -6.13609
R_Thigh  6.77688 6.14544 -26.9712
R_Calf  -3.48045 11.2516 37.2458
R_Foot  -0.904083 -4.0438 -1.73733
R_Toe0  -1.1115 -0.0966201 -10.4371
108
root  -4.26925 33.3177 16.1049 94.1394 8.32793 86.0222
Spine  2.25678 1.64411 -11.9086
Spine1  2.6032 -4.6417 4.19192
Neck  3.97569e-016 0 -2.38542e-015
Head  5.58528 2.55589 32.8498
R_Clavicle  0.476692 -11.2584 2.69376
R_UpperArm  22.5874 7.7959 41.4552
R_Forearm  20.7923 -28.439 21.5818
R_Hand  -0.514491 7.78245 -15.0698
L_Clavicle  -0.36004 10.25 1.42717
L_UpperArm  -49.5872 -2.453 41.1733
L_Forearm  -0.239772 24.2253 31.3076
L_Hand  -0.215336 1.7446 -3.26454
L_Thigh  -7.11744 11.4989 0.782596
L_Calf  0.908682 -4.95197 36.2397
L_Foot  0.713407 6.51428 -3.47049
L_Toe0  0.505156 0.0349553 -6.13609
R_Thigh  4.43678 7.59258 -29.2018
R_Calf  -2.04553 12.757 40.9458
R_Foot  -1.166 -4.29476 -0.470647
R_Toe0  -1.2587 -0.128489 -11.9169
109
root  -4.25969 32.8915 17.0371 95.3197 7.53715 85.1286
Spine  2.7495 2.37112 -11.693
Spine1  3.00593 -5.29706 3.27513
Neck  3.97569e-016 0 -2.38542e-015
Head  3.66606 3.26584 31.6
R_Clavicle  0.442509 -11.3296 2.35299
R_UpperArm  34.5684 8.23104 43.804
R_Forearm  5.67373 -39.589 23.5102
R_Hand  -0.386785 7.60111 -13.9804
L_Clavicle  -0.361372 9.94326 1.54349
L_UpperArm  -48.4097 -2.87677 41.0423
L_Forearm  -0.163327 24.4306 31.644
L_Hand  -0.230813 1.42333 -3.6759
L_Thigh  -5.07943 11.0678 2.65945
L_Calf  -0.483926 -5.70049 38.3511
L_Foot  0.106549 6.27661 -5.62491
L_Toe0  0.505156 0.035061 -6.13609
R_Thigh  3.25951 8.72779 -30.9402
R_Calf  -0.0396648 13.5625 42.0994
R_Foot  -1.54148 -3.51536 3.57722
R_Toe0  -1.52872 -0.194502 -14.6167
110
root  -4.15869 32.2983 17.9023 97.8842 7.81652 84.8263
Spine  2.83866 3.62441 -8.93166
Spine1  2.85549 -6.78378 2.69988
Neck  3.97569e-016 0 -2.38542e-015
Head  0.938511 4.79728 28.4834
R_Clavicle  0.398559 -12.3105 1.88721
R_UpperArm  36.4127 6.8456 46.8422
R_Forearm  -2.17996 -44.0318 27.0573
R_Hand  -0.21251 7.47609 -12.5309
L_Clavicle  -0.406416 10.7303 2.22974
L_UpperArm  -45.911 -5.83232 37.6167
L_Forearm  -1.4064 25.0737 32.7107
L_Hand  -0.244443 0.783756 -4.32262
L_Thigh  -0.457592 8.8687 6.25368
L_Calf  1.09357 -4.04468 31.2045
L_Foot  0.468597 9.31986 -6.48483
L_Toe0  0.505156 0.0351513 -6.13609
R_Thigh  3.33931 9.79947 -32.2362
R_Calf  2.20923 13.092 39.9175
R_Foot  -1.65781 -1.69458 8.74363
R_Toe0  -1.64137 -0.251717 -16.6482
111
root  -3.96364 31.6979 18.7401 100.974 8.73386 84.912
Spine  3.15168 5.86176 -5.40813
Spine1  2.62244 -9.47339 4.46726
Neck  3.97569e-016 0 -2.38542e-015
Head  -3.58592 7.29891 22.7078
R_Clavicle  0.35777 -14.5015 1.23897
R_UpperArm  35.8481 3.55577 49.76
R_Forearm  -3.96459 -45.4959 28.6638
R_Hand  -0.127829 7.10199 -11.6104
L_Clavicle  -0.433754 12.6519 2.63271
L_UpperArm  -42.3115 -10.9768 30.5864
L_Forearm  -3.13265 25.6791 33.7374
L_Hand  -0.260039 0.437942 -4.8942
L_Thigh  5.79182 6.5314 8.39539
L_Calf  2.1375 -3.14786 23.2102
L_Foot  0.782981 10.0353 -5.85541
L_Toe0  0.505156 0.0352182 -6.13609
R_Thigh  5.24981 10.809 -32.8733
R_Calf  2.63559 11.0063 35.2404
R_Foot  -1.42465 0.326595 13.087
R_Toe0  -1.36496 -0.254756 -16.6428
112
root  -3.67747 31.3083 19.5854 103.644 8.99725 85.8077
Spine  3.51837 6.46767 -3.29265
Spine1  2.47966 -11.2189 8.02217
Neck  3.97569e-016 0 -2.38542e-015
Head  -8.41686 9.39966 16.3389
R_Clavicle  0.337308 -16.5422 0.523378
R_UpperArm  35.5828 -1.01516 49.9797
R_Forearm  -4.36239 -46.4318 29.7551
R_Hand  -0.0487434 6.62431 -10.6157
L_Clavicle  -0.433128 14.471 1.85514
L_UpperArm  -37.6371 -14.0464 22.9659
L_Forearm  -4.27169 24.8442 32.3295
L_Hand  -0.29084 1.03221 -4.94054
L_Thigh  8.09906 4.15746 9.43422
L_Calf  2.30494 -2.36692 17.1197
L_Foot  1.90106 10.4881 -2.25283
L_Toe0  0.505156 0.0352537 -6.13609
R_Thigh  7.88846 10.3779 -31.6991
R_Calf  1.5644 8.62949 28.347
R_Foot  -0.553728 2.53939 13.6596
R_Toe0  -1.05134 -0.153897 -11.4945
113
root  -3.30532 31.138 20.4322 105.817 8.05673 87.9109
Spine  3.02951 3.1875 -2.38063
Spine1  2.21014 -10.043 10.2085
Neck  3.97569e-016 0 -2.38542e-015
Head  -10.6754 10.2715 12.3219
R_Clavicle  0.334023 -17.4249 0.155316
R_UpperArm  35.1617 -5.96063 47.3245
R_Forearm  -5.94075 -46.7362 30.146
R_Hand  0.0978334 6.03928 -8.85945
L_Clavicle  -0.436979 15.3215 0.693499
L_UpperArm  -32.3314 -12.5328 17.5928
L_Forearm  -4.78027 22.01 27.8276
L_Hand  -0.315889 2.27742 -4.4739
L_Thigh  7.91552 1.24756 9.21363
L_Calf  1.63673 -2.02835 14.6811
L_Foot  2.55095 9.58522 0.715954
L_Toe0  0.505156 0.0352498 -6.13609
R_Thigh  11.4511 7.39529 -27.7792
R_Calf  -0.673766 5.69966 18.0216
R_Foot  0.718039 4.77498 8.51768
R_Toe0  -0.466372 0.231737 0.453998
114
root  -2.83633 30.9518 21.3024 107.69 6.94579 90.5187
Spine  1.48316 -1.90848 -1.28236
Spine1  1.42802 -6.7486 9.83975
Neck  3.97569e-016 0 -2.38542e-015
Head  -9.8211 10.1589 10.6403
R_Clavicle  0.350873 -17.9328 0.345516
R_UpperArm  35.1042 -10.9074 44.3167
R_Forearm  -7.38127 -45.3795 29.0419
R_Hand  0.19498 5.4638 -7.39282
L_Clavicle  -0.45575 16.1096 -0.070946
L_UpperArm  -25.1833 -9.43263 13.9059
L_Forearm  -5.32289 18.3705 22.5433
L_Hand  -0.332525 3.31035 -4.13798
L_Thigh  6.83415 -1.87116 8.47383
L_Calf  2.36209 -1.73612 12.7359
L_Foot  3.12698 9.46134 2.81777
L_Toe0  0.505156 0.0351984 -6.13609
R_Thigh  14.3854 2.32145 -21.8555
R_Calf  -4.53983 1.43128 4.43779
R_Foot  2.43596 7.77875 -2.75222
R_Toe0  -0.125423 0.668409 11.8837
115
root  -2.29889 30.7091 22.2364 109.032 6.92004 92.8052
Spine  -0.34562 -5.43516 0.114775
Spine1  0.15902 -3.57702 9.00495
Neck  3.97569e-016 0 -2.38542e-015
Head  -7.65403 9.33834 9.46399
R_Clavicle  0.377061 -18.8573 0.693394
R_UpperArm  35.4986 -15.5413 42.4034
R_Forearm  -5.70118 -42.801 26.8549
R_Hand  0.155928 5.31395 -7.59832
L_Clavicle  -0.502181 17.3774 -0.745186
L_UpperArm  -14.9377 -8.53717 9.50362
L_Forearm  -5.40741 15.5608 18.7469
L_Hand  -0.357645 3.64433 -4.28062
L_Thigh  5.13151 -3.87388 7.00662
L_Calf  4.3987 -1.30721 9.78313
L_Foot  4.21665 10.1219 5.92354
L_Toe0  0.505156 0.0350915 -6.13609
R_Thigh  15.0695 -2.36285 -16.7486
R_Calf  -6.42908 -2.58797 -8.05314
R_Foot  2.33607 5.77222 -11.1144
R_Toe0  1.94661 -0.585869 -0.095843
116
root  -1.73374 30.6972 23.3384 109.322 8.12136 94.459
Spine  -1.66944 -6.93932 0.391307
Spine1  -0.953239 -1.14831 9.51807
Neck  3.97569e-016 0 -2.38542e-015
Head  -4.89004 7.89083 9.0519
R_Clavicle  0.397426 -20.0215 0.922537
R_UpperArm  34.775 -18.6501 41.2133
R_Forearm  -2.35589 -40.5076 24.6714
R_Hand  -0.0203892 5.34741 -9.27118
L_Clavicle  -0.547924 18.2048 -1.50839
L_UpperArm  -3.37857 -9.38577 3.5271
L_Forearm  -3.1112 13.8392 16.5146
L_Hand  -0.356004 3.33476 -4.4237
L_Thigh  2.99487 -4.02813 3.66775
L_Calf  6.30547 -1.07014 8.11762
L_Foot  4.98407 9.68946 8.93512
L_Toe0  0.505156 0.0349212 -6.13609
R_Thigh  14.1696 -5.65365 -13.4059
R_Calf  -5.41993 -5.4521 -17.1998
R_Foot  1.90344 3.32186 -11.659
R_Toe0  0.865107 -0.305024 -17.1861
117
root  -1.1814 30.9975 24.6074 108.304 9.7294 95.4995
Spine  -2.70235 -8.14269 -0.688023
Spine1  -1.83477 1.56002 9.98649
Neck  3.97569e-016 0 -2.38542e-015
Head  -0.33717 5.71946 11.4075
R_Clavicle  0.410489 -20.9804 1.10254
R_UpperArm  31.3524 -19.804 40.6657
R_Forearm  -1.41741 -38.5712 22.9948
R_Hand  -0.198928 5.32472 -10.9189
L_Clavicle  -0.545149 17.9771 -1.90351
L_UpperArm  5.86256 -9.38829 -2.10924
L_Forearm  2.16397 12.5417 14.871
L_Hand  -0.293921 2.87459 -3.84401
L_Thigh  1.10986 -3.20233 -1.45311
L_Calf  7.16722 -1.20108 9.1116
L_Foot  5.19513 8.79451 10.6318
L_Toe0  0.500164 0.0347183 -6.14052
R_Thigh  12.4742 -7.59034 -10.9802
R_Calf  -2.38141 -6.91702 -22.0817
R_Foot  1.38471 2.41826 -7.45765
R_Toe0  -2.02317 -0.268718 -17.4585
118
root  -0.701571 31.4514 25.8992 106.335 10.7906 96.1396
Spine  -4.0669 -10.0242 -1.88282
Spine1  -3.06173 5.03379 8.33275
Neck  3.97569e-016 0 -2.38542e-015
Head  6.37515 2.61732 16.4029
R_Clavicle  0.416252 -21.4738 1.23434
R_UpperArm  25.8852 -20.107 41.2158
R_Forearm  -2.02102 -35.7195 21.6829
R_Hand  -0.294047 5.48943 -11.9318
L_Clavicle  -0.511247 17.2905 -1.76897
L_UpperArm  10.8181 -8.15681 -5.31875
L_Forearm  7.50832 11.3367 13.3705
L_Hand  -0.202198 3.02376 -2.54209
L_Thigh  -0.290176 -2.45595 -6.9654
L_Calf  7.60521 -1.61967 12.256
L_Foot  4.78416 7.55944 10.6457
L_Toe0  0.508943 0.0355386 -6.13281
R_Thigh  10.0522 -8.587 -7.97659
R_Calf  -0.682246 -7.11222 -22.7665
R_Foot  1.37582 3.31172 -5.029
R_Toe0  -1.78853 -0.272788 -17.3235
119
root  -0.301239 32.0065 27.1461 104.328 11.1857 96.2358
Spine  -5.88705 -11.8135 -2.64603
Spine1  -4.82039 9.11399 5.31986
Neck  3.97569e-016 0 -2.38542e-015
Head  13.7294 -1.08758 21.2824
R_Clavicle  0.416886 -21.571 1.19475
R_UpperArm  20.3524 -20.2424 42.6004
R_Forearm  1.32592 -31.6049 21.0157
R_Hand  -0.421148 5.8376 -13.3262
L_Clavicle  -0.47264 16.4727 -1.44415
L_UpperArm  12.222 -7.02185 -6.53841
L_Forearm  8.60654 10.4858 12.3242
L_Hand  -0.123649 3.62773 -1.39558
L_Thigh  -1.54985 -1.69799 -11.8228
L_Calf  8.09204 -2.17101 16.3983
L_Foot  3.97123 6.19014 9.3429
L_Toe0  1.03277 0.0222727 -5.66827
R_Thigh  7.72823 -8.52274 -4.64564
R_Calf  -0.56499 -6.11846 -19.4447
R_Foot  1.48902 3.5528 -5.67215
R_Toe0  -1.78853 -0.272801 -17.3235
